<svg width="12" height="12" viewBox="0 0 12 12" fill="none" xmlns="http://www.w3.org/2000/svg">
<path d="M6.04657 11.4414L5.19891 10.6758C4.23277 9.80078 3.53094 9.15365 3.09344 8.73438C2.65594 8.3151 2.16376 7.79557 1.61688 7.17578C1.08824 6.55599 0.723653 6 0.523132 5.50781C0.322611 4.9974 0.222351 4.47786 0.222351 3.94922C0.222351 3.05599 0.523132 2.29948 1.12469 1.67969C1.74449 1.0599 2.51011 0.75 3.42157 0.75C4.47886 0.75 5.35386 1.16016 6.04657 1.98047C6.73928 1.16016 7.61428 0.75 8.67157 0.75C9.58303 0.75 10.3395 1.0599 10.9411 1.67969C11.5609 2.29948 11.8708 3.05599 11.8708 3.94922C11.8708 4.66016 11.6338 5.39844 11.1599 6.16406C10.6859 6.92969 10.1664 7.59505 9.60126 8.16016C9.05438 8.72526 8.15204 9.57292 6.89423 10.7031L6.04657 11.4414Z" fill="white"/>
</svg>
